<?xml version="1.0" encoding="UTF-8" standalone="no"?>
<!-- Created with Inkscape (http://www.inkscape.org/) -->

<svg
   xmlns:dc="http://purl.org/dc/elements/1.1/"
   xmlns:cc="http://creativecommons.org/ns#"
   xmlns:rdf="http://www.w3.org/1999/02/22-rdf-syntax-ns#"
   xmlns:svg="http://www.w3.org/2000/svg"
   xmlns="http://www.w3.org/2000/svg"
   xmlns:xlink="http://www.w3.org/1999/xlink"
   xmlns:sodipodi="http://sodipodi.sourceforge.net/DTD/sodipodi-0.dtd"
   xmlns:inkscape="http://www.inkscape.org/namespaces/inkscape"
   width="1000"
   height="1200"
   viewBox="0 0 264.58333 317.50001"
   version="1.1"
   id="svg2854"
   inkscape:version="0.92.4 (5da689c313, 2019-01-14)"
   sodipodi:docname="landscape.svg">
  <defs
     id="defs2848">
    <linearGradient
       inkscape:collect="always"
       xlink:href="#linearGradient1756"
       id="linearGradient1758"
       x1="97.553375"
       y1="176.72871"
       x2="74.701828"
       y2="229.18036"
       gradientUnits="userSpaceOnUse"
       gradientTransform="matrix(1.9277999,0,0,1.9277999,-58.669549,-146.02117)" />
    <linearGradient
       inkscape:collect="always"
       id="linearGradient1756">
      <stop
         style="stop-color:#ba9377;stop-opacity:1"
         offset="0"
         id="stop1752" />
      <stop
         style="stop-color:#a07556;stop-opacity:1"
         offset="1"
         id="stop1754" />
    </linearGradient>
    <linearGradient
       inkscape:collect="always"
       xlink:href="#linearGradient2090"
       id="linearGradient2092"
       x1="343.83066"
       y1="488.64896"
       x2="232.08255"
       y2="670.57111"
       gradientUnits="userSpaceOnUse"
       gradientTransform="matrix(0.51006372,0,0,0.51006372,-33.937924,-45.033698)" />
    <linearGradient
       inkscape:collect="always"
       id="linearGradient2090">
      <stop
         style="stop-color:#a8e86a;stop-opacity:1;"
         offset="0"
         id="stop2086" />
      <stop
         style="stop-color:#9ad761;stop-opacity:1"
         offset="1"
         id="stop2088" />
    </linearGradient>
    <linearGradient
       inkscape:collect="always"
       xlink:href="#linearGradient2030"
       id="linearGradient2032"
       x1="138.84653"
       y1="110.44587"
       x2="141.99654"
       y2="122.20187"
       gradientUnits="userSpaceOnUse"
       gradientTransform="matrix(1.9277999,0,0,1.9277999,-33.937924,-45.033698)" />
    <linearGradient
       inkscape:collect="always"
       id="linearGradient2030">
      <stop
         style="stop-color:#818181;stop-opacity:1"
         offset="0"
         id="stop2026" />
      <stop
         style="stop-color:#8a8a8a;stop-opacity:0;"
         offset="1"
         id="stop2028" />
    </linearGradient>
    <linearGradient
       inkscape:collect="always"
       xlink:href="#linearGradient2022"
       id="linearGradient2024"
       x1="107.04144"
       y1="98.151474"
       x2="107.04144"
       y2="112.98493"
       gradientUnits="userSpaceOnUse"
       gradientTransform="matrix(1.9277999,0,0,1.9277999,-33.937924,-45.033698)" />
    <linearGradient
       inkscape:collect="always"
       id="linearGradient2022">
      <stop
         style="stop-color:#9e9e9e;stop-opacity:1"
         offset="0"
         id="stop2018" />
      <stop
         style="stop-color:#939393;stop-opacity:0;"
         offset="1"
         id="stop2020" />
    </linearGradient>
    <linearGradient
       inkscape:collect="always"
       xlink:href="#linearGradient2056"
       id="linearGradient2058"
       x1="49.798016"
       y1="112.49421"
       x2="50.66396"
       y2="119.87336"
       gradientUnits="userSpaceOnUse"
       gradientTransform="matrix(1.9277999,0,0,1.9277999,-33.937924,-45.033698)" />
    <linearGradient
       inkscape:collect="always"
       id="linearGradient2056">
      <stop
         style="stop-color:#6b6b6b;stop-opacity:1"
         offset="0"
         id="stop2052" />
      <stop
         style="stop-color:#7e7e7e;stop-opacity:0;"
         offset="1"
         id="stop2054" />
    </linearGradient>
    <linearGradient
       inkscape:collect="always"
       xlink:href="#linearGradient2040"
       id="linearGradient2042"
       x1="86.273064"
       y1="119.35119"
       x2="86.151291"
       y2="133.50002"
       gradientUnits="userSpaceOnUse"
       gradientTransform="matrix(1.9277999,0,0,1.9277999,-33.937924,-45.033698)" />
    <linearGradient
       inkscape:collect="always"
       id="linearGradient2040">
      <stop
         style="stop-color:#707070;stop-opacity:1"
         offset="0"
         id="stop2036" />
      <stop
         style="stop-color:#838383;stop-opacity:0;"
         offset="1"
         id="stop2038" />
    </linearGradient>
    <linearGradient
       inkscape:collect="always"
       xlink:href="#linearGradient2008"
       id="linearGradient2010"
       x1="72.430038"
       y1="89.999748"
       x2="72.430038"
       y2="120.73575"
       gradientUnits="userSpaceOnUse"
       gradientTransform="matrix(1.9277999,0,0,1.9277999,-33.937924,-45.033698)" />
    <linearGradient
       inkscape:collect="always"
       id="linearGradient2008">
      <stop
         style="stop-color:#828282;stop-opacity:1"
         offset="0"
         id="stop2004" />
      <stop
         style="stop-color:#787878;stop-opacity:1"
         offset="1"
         id="stop2006" />
    </linearGradient>
    <linearGradient
       inkscape:collect="always"
       xlink:href="#linearGradient1748"
       id="linearGradient1750"
       x1="104.50239"
       y1="189.55765"
       x2="104.50239"
       y2="82.649841"
       gradientUnits="userSpaceOnUse"
       gradientTransform="matrix(1.9277999,0,0,1.9277999,-58.669549,-146.02117)" />
    <linearGradient
       inkscape:collect="always"
       id="linearGradient1748">
      <stop
         style="stop-color:#8c8c8c;stop-opacity:1"
         offset="0"
         id="stop1744" />
      <stop
         style="stop-color:#aeaeae;stop-opacity:1"
         offset="1"
         id="stop1746" />
    </linearGradient>
    <linearGradient
       inkscape:collect="always"
       xlink:href="#linearGradient1792"
       id="linearGradient1794"
       x1="99.424263"
       y1="129.68927"
       x2="99.424263"
       y2="171.11604"
       gradientUnits="userSpaceOnUse"
       gradientTransform="matrix(1.9277999,0,0,1.9277999,-58.669549,-146.02117)" />
    <linearGradient
       inkscape:collect="always"
       id="linearGradient1792">
      <stop
         style="stop-color:#fdfdfd;stop-opacity:1;"
         offset="0"
         id="stop1788" />
      <stop
         style="stop-color:#dbdbdb;stop-opacity:1"
         offset="1"
         id="stop1790" />
    </linearGradient>
    <linearGradient
       inkscape:collect="always"
       xlink:href="#linearGradient2064"
       id="linearGradient2066"
       x1="130.40178"
       y1="73.001862"
       x2="130.40178"
       y2="79.143974"
       gradientUnits="userSpaceOnUse"
       gradientTransform="matrix(1.9277999,0,0,1.9277999,-33.937924,-45.033698)" />
    <linearGradient
       inkscape:collect="always"
       id="linearGradient2064">
      <stop
         style="stop-color:#4d5742;stop-opacity:1;"
         offset="0"
         id="stop2060" />
      <stop
         style="stop-color:#3f4938;stop-opacity:1"
         offset="1"
         id="stop2062" />
    </linearGradient>
    <linearGradient
       inkscape:collect="always"
       xlink:href="#linearGradient1706"
       id="linearGradient1708"
       x1="101.56242"
       y1="70.75634"
       x2="101.56242"
       y2="157.21803"
       gradientUnits="userSpaceOnUse"
       gradientTransform="matrix(1.9277999,0,0,1.9962243,-58.669549,-161.74555)" />
    <linearGradient
       inkscape:collect="always"
       id="linearGradient1706">
      <stop
         style="stop-color:#abedff;stop-opacity:1"
         offset="0"
         id="stop1702" />
      <stop
         style="stop-color:#d6f3fb;stop-opacity:0;"
         offset="1"
         id="stop1704" />
    </linearGradient>
  </defs>
  <sodipodi:namedview
     id="base"
     pagecolor="#ffffff"
     bordercolor="#666666"
     borderopacity="1.0"
     inkscape:pageopacity="0.0"
     inkscape:pageshadow="2"
     inkscape:zoom="0.7"
     inkscape:cx="437.6985"
     inkscape:cy="596.00599"
     inkscape:document-units="px"
     inkscape:current-layer="layer1"
     showgrid="false"
     showguides="false"
     inkscape:guide-bbox="true"
     units="px"
     inkscape:window-width="1920"
     inkscape:window-height="1017"
     inkscape:window-x="-8"
     inkscape:window-y="-8"
     inkscape:window-maximized="1">
    <sodipodi:guide
       position="0,236.26627"
       orientation="1,0"
       id="guide3399"
       inkscape:locked="false"
       inkscape:label=""
       inkscape:color="rgb(0,0,255)" />
    <sodipodi:guide
       position="264.58333,317.5"
       orientation="0,1"
       id="guide3401"
       inkscape:locked="false"
       inkscape:label=""
       inkscape:color="rgb(0,0,255)" />
    <sodipodi:guide
       position="264.58333,288.01786"
       orientation="1,0"
       id="guide3403"
       inkscape:locked="false"
       inkscape:label=""
       inkscape:color="rgb(0,0,255)" />
    <sodipodi:guide
       position="102.05357,0"
       orientation="0,1"
       id="guide3405"
       inkscape:locked="false"
       inkscape:label=""
       inkscape:color="rgb(0,0,255)" />
  </sodipodi:namedview>
  <metadata
     id="metadata2851">
    <rdf:RDF>
      <cc:Work
         rdf:about="">
        <dc:format>image/svg+xml</dc:format>
        <dc:type
           rdf:resource="http://purl.org/dc/dcmitype/StillImage" />
        <dc:title></dc:title>
      </cc:Work>
    </rdf:RDF>
  </metadata>
  <g
     inkscape:label="Layer 1"
     inkscape:groupmode="layer"
     id="layer1"
     transform="translate(0,20.500023)">
    <path
       style="display:inline;opacity:0.69899998;fill:url(#linearGradient1708);fill-opacity:1;stroke:none;stroke-width:0.51903683px;stroke-linecap:butt;stroke-linejoin:miter;stroke-opacity:1"
       d="M 0.00365413,-20.500021 H 264.58333 V 297.00028 H 0.00365413 Z"
       id="path1700"
       inkscape:connector-curvature="0" />
    <path
       style="display:inline;opacity:0.19599998;fill:#4d5742;fill-opacity:1;stroke:none;stroke-width:0.52628762px;stroke-linecap:butt;stroke-linejoin:miter;stroke-opacity:1"
       d="m 264.58337,65.641104 c 0,0 -7.66705,1.097077 -12.56187,-0.822804 -4.89481,-1.919893 -3.60668,-2.194165 -11.59293,-2.194165 -7.98624,0 -6.9558,-0.27426 -12.88107,1.919905 -5.92529,2.194141 -10.56245,5.75968 -16.23013,6.582471 -5.66765,0.822804 -6.18291,3.016969 -16.74537,3.291254 -10.56245,0.274272 -15.97249,1.097089 -21.12493,1.097089 -5.15241,0 -24.73162,1.645634 -27.05021,1.645634 -2.31858,0 -8.5015,0.548506 -14.94201,1.097051 -6.44053,0.548532 -6.95577,1.919918 -19.32159,2.46845 -12.365813,0.548532 -21.897782,2.194165 -29.368819,3.016969 -7.470994,0.822804 -17.775837,0.548532 -23.958755,0.548532 -6.182899,0 -5.667655,-0.822817 -9.531971,0 -3.864329,0.822804 -6.698159,1.371348 -14.169172,3.291254 -7.470998,1.919881 -6.440513,3.291242 -14.426775,4.114071 -7.98625,0.822779 -8.179467,0.822779 -14.4267792,1.097064 C 0.00367681,93.068151 0.00367681,92.519594 0.00367681,92.519594 V 170.68665 L 264.58333,185.49728 Z"
       id="path1696"
       inkscape:connector-curvature="0" />
    <path
       style="display:inline;opacity:0.09800002;fill:#4d5742;fill-opacity:1;stroke:none;stroke-width:0.51811141px;stroke-linecap:butt;stroke-linejoin:miter;stroke-opacity:1"
       d="m -0.012447,105.35406 c 9.5418949,-2.09491 15.086697,-3.09683 18.094045,-2.91465 3.007346,0.18217 3.477246,0 6.484597,0.63758 3.007345,0.63757 1.315714,1.0019 7.42439,2.18599 6.10868,1.18408 6.672556,1.18408 9.773888,1.91274 3.101325,0.72866 6.296634,1.09299 10.24378,1.91274 3.947144,0.81974 4.417045,2.45923 6.766537,3.37005 2.349486,0.91084 4.417041,1.6395 5.168874,3.09683 0.751843,1.45731 0.657859,3.27896 1.033779,4.00762 0.375924,0.72867 -5.168877,3.18792 -5.638781,3.37008 -0.469893,0.18216 -3.101324,2.45923 -5.544795,2.55032 -2.443475,0.0911 -7.048476,1.73057 -12.405318,1.73057 -5.356837,0 -11.277558,0.81974 -14.190922,0.45542 -2.913375,-0.36434 -10.901644,0.27323 -15.412666,-1.54842 -4.5110249,-1.82164 -11.797408,-3.46113 -11.797408,-3.82549 0,-0.3643 0,-16.94138 0,-16.94138 z"
       id="path1988"
       inkscape:connector-curvature="0" />
    <path
       style="display:inline;opacity:0.06400003;fill:url(#linearGradient2066);fill-opacity:1;stroke:none;stroke-width:0.7515623px;stroke-linecap:butt;stroke-linejoin:miter;stroke-opacity:1"
       d="m 222.4479,96.316277 c 1.70808,0.919905 7.82195,1.880166 10.35588,2.86111 2.53388,0.980953 4.07623,1.634913 7.60161,2.779373 3.52541,1.14443 6.94063,2.45237 9.25415,3.18809 2.31357,0.7357 5.06779,1.14443 1.65255,2.61587 -3.41523,1.47142 -8.15248,2.77936 -15.53378,2.61585 -7.38129,-0.16349 -7.71179,1.63493 -18.28799,0 -10.57619,-1.63491 -9.14401,-1.55316 -14.98294,-2.86111 -5.83893,-1.30792 -8.59315,-1.71666 -9.91518,-2.45236 -1.32205,-0.73572 0.661,-4.33253 0.661,-4.33253 0,0 0.66103,-1.389678 3.52541,-1.798422 2.86437,-0.408719 1.98302,0.08175 5.94912,-1.553168 3.96605,-1.634915 2.97452,-2.86111 8.81347,-3.269829 5.83897,-0.408732 10.9067,2.207126 10.9067,2.207126 z"
       id="path1990"
       inkscape:connector-curvature="0"
       sodipodi:nodetypes="ccccscsccccccc" />
    <path
       style="display:inline;fill:url(#linearGradient1794);fill-opacity:1;stroke:none;stroke-width:0.51006377px;stroke-linecap:butt;stroke-linejoin:miter;stroke-opacity:1"
       d="m 0.00365413,120.22392 c 1.80136217,-0.70807 1.76029137,-0.71508 8.05065597,-1.03048 12.3658189,-0.25762 11.5929539,0.25762 14.1691619,0.25762 2.576211,0 0.515242,0.77286 7.213394,0.77286 6.698147,0 4.379555,0.25764 11.07771,0 6.698145,-0.2576 7.98625,0 10.304839,-0.2576 2.31859,-0.25764 9.016741,-1.28811 10.304847,-1.54574 1.288105,-0.25761 44.826068,-5.66767 44.826068,-5.66767 l 70.07293,-2.57619 26.79259,-3.34907 c 0,0 6.95577,-1.03048 14.94204,-0.77288 7.98626,0.25764 9.27434,0.77288 15.19964,-0.2576 5.92528,-1.03049 7.72865,-1.03049 13.13867,-1.54574 5.41004,-0.51524 4.69879,-1.03048 11.59298,-0.51524 6.89415,0.51524 6.89415,0 6.89415,0 v 46.37179 L 40.772191,183.85634 0.00365413,163.7619 Z"
       id="path1698"
       inkscape:connector-curvature="0"
       sodipodi:nodetypes="ccsscccccccsssccccc" />
    <path
       style="display:inline;fill:url(#linearGradient1750);fill-opacity:1;stroke:none;stroke-width:0.51006377px;stroke-linecap:butt;stroke-linejoin:miter;stroke-opacity:1"
       d="m 45.171602,170.39398 c 0,-0.18219 0.22191,-0.76222 0.22191,-0.76222 0.485767,-0.92013 1.547457,-1.27056 1.547457,-1.27056 l 1.730574,-1.22962 c 0,0 0.728662,-0.50098 0.683118,-1.91275 -0.04556,-1.4118 -0.500954,-3.7344 -0.182158,-5.00957 0.318792,-1.27515 -0.09108,-3.59777 0.318792,-4.46303 0.409869,-0.86529 2.00382,-1.50288 2.322609,-2.23155 0.318792,-0.72865 1.366241,-2.14043 1.366241,-4.32643 0,-2.18599 0,-1.82165 0.227708,-3.87103 0.227709,-2.04937 0,-1.36622 0.273252,-3.27897 0.273246,-1.91274 1.41178,-1.82165 1.776115,-4.41751 0.364332,-2.59585 0.273245,-2.82356 0.273245,-4.09874 0,-1.27515 -0.09108,-7.28661 -0.04556,-9.56368 0.04556,-2.27708 -0.59204,-2.82357 -0.04556,-5.32836 0.546498,-2.50477 1.138538,-2.45922 0.81975,-4.78182 -0.318789,-2.32262 0.500953,-5.10065 -0.81975,-8.37963 -1.320697,-3.27898 -1.457322,-0.72867 -1.593949,-4.64523 -0.136628,-3.916552 -0.45541,-3.461153 -0.728662,-5.920383 -0.273245,-2.459243 -0.455416,-8.060833 -0.5465,-11.248714 -0.09108,-3.187906 -0.819741,-4.645233 -0.592034,-6.967837 0.227708,-2.322617 -0.136627,-5.373897 0.774206,-7.286623 0.910825,-1.912751 1.366242,-1.593965 2.140443,-4.189809 0.774205,-2.595881 1.320702,-9.745878 1.320702,-13.844594 0,-4.098731 -0.136628,-6.831214 0.318788,-8.288537 0.455417,-1.457323 0.91083,-2.914652 0.819746,-4.872931 -0.09108,-1.958279 0.227707,-5.464971 0.04556,-6.78567 -0.182161,-1.320702 -1.001913,-1.685034 -0.273252,-3.370068 0.728665,-1.685032 0.956366,-2.00382 0.409879,-3.552227 -0.5465,-1.548408 -1.502869,-3.187896 -1.04746,-5.829295 0.455416,-2.641407 -0.455409,-3.324525 0.546497,-4.007651 1.001913,-0.683117 2.140447,-0.72866 2.595863,-1.593947 0.455416,-0.865287 1.552689,-0.784257 1.552689,-0.784257 l 25.772156,19.04636 84.489683,86.578243 92.93962,59.7681 v 44.31081 L 156.18644,219.9233 40.772188,183.85634 Z"
       id="path1691"
       inkscape:connector-curvature="0"
       sodipodi:nodetypes="csccccccsscssccscsccsccscccccccscccccccc" />
    <path
       style="display:inline;fill:url(#linearGradient2010);fill-opacity:1;stroke:none;stroke-width:0.51006377px;stroke-linecap:butt;stroke-linejoin:miter;stroke-opacity:1"
       d="m 60.029368,90.661911 c 0,0 -0.772864,-0.25762 -0.193215,2.254184 0.57965,2.511817 0.644049,3.413483 0.644049,4.315162 0,0.901679 -0.0644,1.094885 0,4.186343 0.0644,3.09145 -0.450834,3.99313 -0.257618,5.98969 0.193219,1.99657 0.57965,4.44397 0.837272,7.47101 0.257618,3.02704 1.352511,7.66422 0.966077,9.91839 -0.386431,2.2542 -1.352512,13.2031 -0.966077,13.78275 0.386431,0.57965 -0.257622,2.70503 0.257618,5.02361 0.51524,2.3186 1.481321,5.79646 1.352512,8.63031 -0.128826,2.83383 -1.416918,5.98971 -1.416918,5.98971 0,0 -0.257615,1.48132 -1.159293,4.37953 -0.901675,2.89825 -2.361606,1.35594 -1.867751,5.34565 0.493847,3.9897 -1.159297,5.28123 -1.674541,7.14898 -0.51524,1.86773 16.487749,13.65392 16.487749,13.65392 l 65.886608,23.44353 83.72684,5.15241 41.93064,4.63716 10e-6,-52.23233 L 128.621,90.339889 91.012032,85.861486 70.988395,70.144938 c -0.111271,1.604369 0.95907,4.743807 -1.080912,7.857512 -1.436711,2.192918 -4.71114,-2.042362 -6.194696,-0.08338 -0.770556,1.017446 -0.396656,4.633481 -0.925903,7.13031 -0.568922,2.683988 -2.036212,4.265043 -2.757516,5.612611 z"
       id="path1992"
       inkscape:connector-curvature="0"
       sodipodi:nodetypes="ccssscccscccssccccccccsssc" />
    <path
       style="display:inline;fill:url(#linearGradient2042);fill-opacity:1;stroke:none;stroke-width:0.51006377px;stroke-linecap:butt;stroke-linejoin:miter;stroke-opacity:1"
       d="m 128.621,173.29388 c 0,0 -0.32204,1.1593 0.32201,3.5423 0.64407,2.38298 0.77286,2.25418 0.77286,3.47789 0,1.2237 -0.19321,1.2881 -0.57963,2.76942 -0.38644,1.48132 -1.54574,2.64061 -1.48132,3.86431 0.0645,1.22369 -0.25764,0.45083 -0.45084,2.70501 -0.19322,2.2542 -1.46523,2.93045 -1.46523,2.93045 l 15.69879,11.62516 20.93172,1.93214 2.12538,-13.52509 -27.9519,-18.61314 z"
       id="path1994"
       inkscape:connector-curvature="0"
       sodipodi:nodetypes="ccsccscccccc" />
    <path
       style="display:inline;fill:url(#linearGradient2058);fill-opacity:1;stroke:none;stroke-width:0.51006377px;stroke-linecap:butt;stroke-linejoin:miter;stroke-opacity:1"
       d="m 46.510968,169.11203 c -0.159393,0.68311 -0.232128,0.96157 -0.183819,1.04612 0.04832,0.0846 -0.05233,0.57562 -0.124773,0.68833 -0.07244,0.11286 -0.132848,0.21736 -0.173099,0.37034 -0.04026,0.15289 -0.05232,0.34618 -0.05232,0.34618 l 7.706793,6.6573 19.628351,8.01529 15.210827,-1.6395 4.053179,-4.32642 -17.761142,-5.92039 -9.92803,-4.05319 -6.23917,-2.59584 -5.237264,-0.40989 -5.055092,1.04746 z"
       id="path1996"
       inkscape:connector-curvature="0" />
    <path
       style="display:inline;fill:url(#linearGradient2024);fill-opacity:1;stroke:none;stroke-width:0.51006377px;stroke-linecap:butt;stroke-linejoin:miter;stroke-opacity:1"
       d="m 146.04171,135.13814 c -0.63757,5.2828 -0.36433,6.3758 -0.81974,7.55987 -0.45541,1.18408 -0.36433,0.27324 -0.91082,2.45923 -0.54651,2.18599 -0.81975,2.27706 -0.91084,4.82738 -0.0911,2.55032 -0.45541,2.82359 -0.27323,5.55607 0.18215,2.73247 -0.0911,4.55413 0.0911,6.01147 0.18215,1.45732 0.54648,4.00765 0.54648,4.00765 l 42.90001,14.39107 43.71973,26.04968 34.19899,10.1921 v -46.44074 l -44.40023,-29.87748 -71.40891,-35.34012 -42.26244,-8.743953 -1.82165,12.205083 22.2242,11.84078 17.22834,12.43149 z"
       id="path1998"
       inkscape:connector-curvature="0"
       sodipodi:nodetypes="cscccccccccccccccc" />
    <path
       style="display:inline;fill:url(#linearGradient2032);fill-opacity:1;stroke:none;stroke-width:0.51006377px;stroke-linecap:butt;stroke-linejoin:miter;stroke-opacity:1"
       d="m 218.0882,162.18973 c 0.36434,3.46114 0.18219,0.63757 0.36434,3.55224 0.18219,2.91464 0.91084,3.55221 0,4.73628 -0.91081,1.1841 -0.18216,0.0912 -1.18406,2.7325 -1.00193,2.6414 -1.63949,3.18789 -1.73057,4.91846 -0.0912,1.7306 -0.54649,1.45734 -0.18217,2.82357 0.36432,1.36625 0.4554,2.82358 0.4554,2.82358 l 31.879,21.22229 16.89319,11.19401 v -46.44074 l -50.59384,-15.30423 -4.37195,4.8274 z"
       id="path2000"
       inkscape:connector-curvature="0" />
    <path
       style="display:inline;fill:#7a7a7a;fill-opacity:1;stroke:none;stroke-width:0.51006377px;stroke-linecap:butt;stroke-linejoin:miter;stroke-opacity:1"
       d="m 256.33667,196.35097 c 0.0966,1.15928 0.16095,1.70674 -0.0966,2.2864 -0.25764,0.57964 -0.25764,0.64405 -0.25764,0.64405 l -5.31343,-0.93388 c 0,0 -1.89995,-0.64406 -1.93217,-0.51524 -0.0321,0.12867 -0.0644,-0.48304 -0.0644,0.28982 0,0.77285 -0.0644,0.41862 0,0.99828 0.0644,0.57964 -0.0966,1.03047 -0.0966,1.03047 l 6.15068,7.88967 9.85683,2.6084 v -12.49462 c -2.95384,-0.25452 -8.40185,-3.69868 -8.24671,-1.80335 z"
       id="path2002"
       inkscape:connector-curvature="0"
       sodipodi:nodetypes="cccccssccccc" />
    <path
       style="display:inline;fill:#b2f175;fill-opacity:1;stroke:none;stroke-width:0.51006377px;stroke-linecap:butt;stroke-linejoin:miter;stroke-opacity:1"
       d="m 154.96499,201.03619 c 1.60243,0.36083 2.98612,0.64607 5.78702,1.38475 2.07214,0.54649 7.73037,1.65087 13.4629,3.02848 2.86624,0.68883 5.75059,1.44567 8.21482,2.23554 1.23209,0.39493 2.35941,0.79856 3.32635,1.2054 0.96699,0.40687 1.77401,0.81746 2.36605,1.22735 1.18406,0.81975 2.04892,1.36653 2.82028,1.77925 0.77135,0.41272 1.44908,0.69165 2.25742,0.9763 1.61673,0.56926 3.75675,1.16043 8.21981,2.89101 2.23153,0.86529 4.21257,1.60548 6.057,2.25445 1.84443,0.64897 3.55308,1.20757 5.23811,1.70852 1.68504,0.50094 3.3473,0.94455 5.10065,1.36581 1.75334,0.42125 3.5972,0.81947 5.64656,1.22933 4.09874,0.81974 7.83314,1.77598 11.47644,2.5274 1.82165,0.37572 3.6211,0.70091 5.43138,0.93147 1.81026,0.23056 3.63192,0.3666 5.49913,0.3666 3.73438,0 8.41272,0.0911 12.15785,0.29588 1.87253,0.10253 3.5112,0.23426 4.68221,0.39649 0.58553,0.0811 1.05469,0.16984 1.37679,0.26701 0.3221,0.0971 0.49709,0.20194 0.49709,0.3158 v -17.37306 l -1.91272,-0.91053 c -1.91272,-0.91086 -2.09447,-1.64022 -6.46646,-4.09945 -4.37198,-2.45924 -9.29045,-6.10199 -13.38918,-8.1969 -4.0987,-2.09491 -6.64916,-4.00747 -12.29633,-6.83105 -5.64712,-2.82356 -7.92433,-3.91684 -11.02115,-5.46525 -3.09681,-1.54842 -7.28631,-3.46158 -11.74941,-5.64757 -4.46305,-2.18599 -6.10212,-3.36992 -9.01675,-4.91832 -2.91467,-1.54848 -3.91741,-0.82004 -6.83208,-1.63976 -2.91464,-0.81979 -6.92169,-1.73044 -8.83446,-2.36804 -1.91275,-0.63758 -9.10871,-2.27649 -10.7482,-2.45867 -1.63949,-0.18216 -6.92157,-2.09547 -9.28972,-2.64196 -2.36818,-0.54649 -2.45953,-0.81904 -3.55252,-1.00122 -1.09299,-0.18216 -1.00193,0.45487 -0.63758,1.18353 0.36433,0.72865 -1.27531,0.45526 -3.37022,0.45526 -2.09488,0 -2.82355,-1.18392 -5.73821,-2.36801 -2.91466,-1.18408 -1.73014,0.18198 -5.19127,1.73044 -3.46118,1.54841 -1.36684,1.36639 -3.27957,2.73263 -1.91275,1.36625 -3.46116,0.54623 -6.3758,0.91055 -2.91465,0.36432 -1.73028,0.72924 -3.46084,2.64197 -1.73058,1.91275 -1.54856,1.63903 -2.73265,2.64096 -1.18407,1.00191 3.09668,2.91522 5.55591,5.19228 2.45925,2.27708 5.19159,5.19116 7.46865,6.92173 2.27707,1.73058 3.37006,3.82619 3.82549,5.37461 0.45539,1.54842 1.18451,1.91188 3.09723,2.73164 1.91274,0.81973 3.64275,2.46008 5.64657,4.91931 1.35757,1.66612 1.49843,2.15133 0.68341,2.09804 z"
       id="path2084"
       inkscape:connector-curvature="0" />
    <path
       style="display:inline;fill:url(#linearGradient2092);fill-opacity:1;stroke:none;stroke-width:0.51006377px;stroke-linecap:butt;stroke-linejoin:miter;stroke-opacity:1"
       d="M 0.00323092,157.84116 V 296.9999 H 264.58286 v -70.59702 c 0,-0.11386 -0.17503,-0.21866 -0.4971,-0.31578 -0.3221,-0.0971 -0.79126,-0.18587 -1.37678,-0.26699 -1.17102,-0.16225 -2.80968,-0.29403 -4.68222,-0.39649 -3.74513,-0.20495 -8.42347,-0.29588 -12.15787,-0.29588 -1.86717,0 -3.68885,-0.13604 -5.49911,-0.36662 -1.81027,-0.23054 -3.60973,-0.55574 -5.43138,-0.93146 -3.6433,-0.75143 -7.3777,-1.70766 -11.47643,-2.52741 -2.04937,-0.40986 -3.89324,-0.80806 -5.64657,-1.22934 -1.75335,-0.42124 -3.41561,-0.86485 -5.10065,-1.36581 -1.68503,-0.50096 -3.39368,-1.05955 -5.23811,-1.70851 -1.84442,-0.64897 -3.82547,-1.38916 -6.05701,-2.25444 -4.46305,-1.73059 -6.60307,-2.32177 -8.2198,-2.89103 -0.80836,-0.28464 -1.48607,-0.56356 -2.25742,-0.97629 -0.77136,-0.41272 -1.63622,-0.9595 -2.82028,-1.77923 -0.59204,-0.40989 -1.39907,-0.8205 -2.36602,-1.22736 -0.96698,-0.40685 -2.09429,-0.81049 -3.32638,-1.20543 -2.46423,-0.78986 -5.34855,-1.5467 -8.21482,-2.23551 -5.73253,-1.37763 -11.39075,-2.482 -13.4629,-3.02849 -2.8009,-0.7387 -4.18459,-1.02392 -5.78702,-1.38475 -0.38799,-0.0253 -0.9244,-0.13267 -1.77627,-0.36761 -2.6414,-0.72866 -9.10756,-2.55045 -12.47762,-3.3702 -3.37006,-0.81975 -14.02733,-5.3743 -19.85664,-7.56029 -5.82929,-2.18599 -19.4002,-6.64834 -22.405936,-8.01457 -3.005729,-1.36625 -10.292503,-3.82563 -12.933902,-4.64539 -2.6414,-0.81974 -7.377561,-1.27586 -8.743809,-1.5491 -1.366242,-0.27326 -6.649187,-2.55005 -9.108422,-3.46088 -2.459236,-0.91085 -8.197312,-3.55224 -9.381386,-3.82546 -1.184075,-0.27327 -4.918619,-0.45515 -6.558105,-0.27299 -1.639488,0.18219 -2.277208,0.4553 -4.645371,1.73044 -2.368147,1.27517 2.549897,-0.45556 5.191298,-0.81987 2.6414,-0.36436 3.643592,-0.0913 5.465251,0.27296 1.821651,0.36432 5.009692,1.82223 6.558102,2.64196 1.548406,0.81976 5.465258,2.36816 9.928317,3.82549 4.463055,1.45731 4.645363,1.82136 9.746001,3.46084 5.100636,1.63949 4.827105,2.09534 4.098444,2.45966 -0.728663,0.36433 -1.275303,0.63772 -6.55811,0.81991 -5.282796,0.18216 -9.928309,-2.00396 -13.116207,-2.73263 -3.187899,-0.72867 -6.284006,-2.45951 -9.927315,-3.55252 -3.643314,-1.09297 -4.827961,-1.45775 -7.105029,-2.45967 -2.277072,-1.00188 -3.369495,-1.09255 -5.008982,-1.36581 -1.639494,-0.27324 -3.461153,-1.0927 -5.738221,-2.1857 -2.27707,-1.0929 -2.368155,-1.00219 -3.825477,-1.00219 -1.45733,0 -2.550889,-0.82018 -5.192292,-1.82207 -2.641406,-1.00191 -7.104601,-2.55018 -10.383582,-3.00561 -3.27898,-0.45541 -4.371837,6.6e-4 -10.018966,-1.18351 -5.6471347,-1.18406 -3.734611,-1.63978 -11.18753008,-4.19009 z"
       id="path1685"
       inkscape:connector-curvature="0" />
    <path
       style="display:inline;fill:#c3f194;fill-opacity:1;stroke:none;stroke-width:0.51006377px;stroke-linecap:butt;stroke-linejoin:miter;stroke-opacity:1"
       d="m 264.58333,143.0234 c 0,0 -4.96203,-4.37957 -7.92466,-6.56935 -2.96264,-2.18976 -0.12884,-1.67452 -6.18291,-5.79646 -6.05409,-4.12195 -6.95577,-6.18291 -10.56245,-7.08459 -3.60671,-0.90167 -4.12195,-0.38642 -7.98627,-3.60668 -3.86431,-3.22026 -7.08457,-4.76598 -9.27436,-6.56935 -2.18978,-1.80333 -1.80335,-2.57621 -5.41002,-5.1524 -3.60673,-2.57622 -3.09149,-2.4474 -6.05412,-3.99314 -2.96266,-1.54572 -11.46412,-7.599829 -14.29798,-10.30484 -2.83382,-2.705035 -3.73549,-3.993126 -6.69813,-5.796471 -2.96265,-1.803357 -6.1829,-2.705036 -9.01675,-4.766001 -2.83382,-2.060953 -9.7896,-4.637172 -11.72175,-6.054079 -1.93216,-1.41692 -9.40317,-6.054105 -10.17603,-5.538863 -0.77284,0.515241 -0.12886,-0.257634 -0.77284,1.030482 -0.64408,1.288104 -0.64408,1.030483 -2.83385,-0.128766 -2.18977,-1.159299 -1.67453,-2.189769 -5.66766,-3.349069 -3.99312,-1.159299 -1.03049,-1.030495 -5.41004,-1.159299 -4.37956,-0.128779 -3.99314,0.257621 -6.56935,-1.674528 -2.57622,-1.932174 -3.22025,-4.379564 -5.53885,-4.766001 C 130.16674,61.357558 119.86187,53.371304 116.89923,50.923902 113.93658,48.476502 106.33676,40.490251 100.79791,37.26999 95.259054,34.049725 84.954208,24.517744 82.506809,23.229639 80.059408,21.941536 75.551043,18.59246 72.330773,16.660297 69.110512,14.728142 61.381877,12.280743 61.381877,12.280743 c 0,0 1.803352,1.159294 3.22027,2.447399 1.416915,1.288103 2.833832,3.220267 5.41004,7.986256 2.576211,4.76599 4.894803,5.410042 4.379559,8.372684 -0.515243,2.962643 -0.901674,2.060971 -0.515243,4.121938 0.386434,2.06097 -1.288105,0.644057 0.772862,3.993129 2.060971,3.349073 1.030487,0.901675 1.932158,4.765987 0.901677,3.864307 -0.51524,1.545731 1.159299,5.152421 1.674533,3.606702 1.416919,4.765989 1.932159,5.28123 0.51524,0.515241 -0.386439,0.128766 0.386427,4.637185 0.772862,4.50838 -1.159293,4.12193 1.932161,8.37269 3.091451,4.250735 -0.128823,3.86431 6.054096,9.789598 6.182906,5.925288 8.372688,6.826954 5.667665,6.698137 -2.705024,-0.128779 -2.060971,1.545737 -6.440527,-2.705011 -4.379563,-4.250759 -5.023615,-4.508367 -9.789603,-6.95577 -4.76599,-2.447403 -7.857444,-6.569346 -5.796477,-2.705036 2.060971,3.864323 0.901675,2.447428 2.447401,4.121956 1.545728,1.674541 5.925284,4.637172 0.901679,3.349069 -5.023616,-1.288104 -4.379563,-2.57622 -7.986257,-2.18977 -3.606698,0.386425 -3.735507,1.030483 -3.349076,2.318586 0.386431,1.288091 0.257621,1.416908 0.901677,3.220252 0.644053,1.803357 3.349072,-0.386425 -0.644056,2.962644 -3.993129,3.349069 -3.606694,3.735519 -3.606694,3.735519 0,0 -1.674537,1.674528 1.03048,4.637172 2.705024,2.962631 3.349075,2.318598 4.121937,5.796483 0.772866,3.477889 0.772866,3.735489 2.576218,4.894809 1.803346,1.15927 2.189773,2.06096 4.508366,2.70501 2.318592,0.64406 4.250751,3.47788 7.728632,3.86431 3.477888,0.38642 8.115066,-0.25761 6.955773,1.54572 -1.159293,1.80335 -4.637181,1.0305 -0.128825,2.70504 4.508375,1.67453 4.250749,3.60667 8.887928,3.9931 4.637174,0.38645 6.698154,1.03048 8.887924,1.03048 2.18978,0 6.31172,0.12869 10.94891,0.64407 4.63718,0.51523 3.09144,0.51523 8.37267,2.18978 5.28124,1.67452 6.31174,1.93215 10.30486,4.50836 3.99312,2.57621 5.66768,2.83384 7.98626,4.50837 2.31858,1.67455 4.50837,4.766 3.22026,1.80335 -1.28811,-2.96264 0.64406,-1.80335 -2.70502,-5.15242 -3.34907,-3.34906 -4.63717,-2.83384 -8.88792,-6.95577 -4.25075,-4.12192 -2.96266,-4.12192 -6.05411,-6.82696 -3.09146,-2.70501 -7.47101,-3.6067 -9.27437,-6.69813 -1.80334,-3.09146 -3.34907,-5.28123 -0.64405,-3.34907 2.70502,1.93215 -1.03048,0.64403 6.44053,5.28123 7.47101,4.63716 5.9253,2.83383 9.66082,6.18288 3.73549,3.34906 2.57618,2.83383 7.471,4.89479 4.89481,2.06098 7.21339,7.0846 13.65392,10.43367 6.44052,3.34907 6.82695,4.63719 10.0472,5.53885 3.22029,0.90168 3.22029,3.22027 7.59983,4.89482 4.37955,1.67454 4.25075,1.03046 7.85745,3.34906 3.60671,2.31858 -1.54574,-0.38642 5.41003,4.12194 6.95577,4.50838 5.15242,5.15241 14.16918,8.37268 9.01673,3.22026 8.50148,4.8948 12.23699,4.37956 3.73551,-0.51525 7.08459,0.90168 5.41003,-0.90166 -1.67452,-1.80337 -5.53883,-4.50839 0.25763,-1.93217 5.79647,2.5762 8.5015,4.12192 10.43366,4.50836 1.93215,0.38644 4.50838,1.03048 8.11506,3.09146 3.6067,2.06098 7.85744,3.22025 10.69127,5.15243 2.83384,1.93216 4.50838,1.80334 4.12196,5.66765 -0.38644,3.86432 -1.28812,3.86432 -1.28812,6.0541 0,2.18977 -2.70502,0.12887 2.06098,4.50837 4.766,4.37958 4.25076,3.22027 3.86431,6.31173 -0.38643,3.09142 0.64404,1.93215 2.96263,3.09142 2.31861,1.1593 7.2134,4.50838 1.03048,2.31862 -6.18289,-2.1898 -7.72863,-2.4474 -9.66077,-2.4474 -1.93217,0 -3.73551,-0.38644 0.77285,1.80332 4.50838,2.1898 2.6378,3.73551 7.85744,4.89482 5.21965,1.1593 5.21965,4.56362 5.21965,4.56362 z"
       id="path1687"
       inkscape:connector-curvature="0" />
    <path
       style="display:inline;fill:url(#linearGradient1758);fill-opacity:1;stroke:none;stroke-width:0.51006377px;stroke-linecap:butt;stroke-linejoin:miter;stroke-opacity:1"
       d="m 106.46557,297.00028 c 0,0 -0.90167,-4.17024 -0.64405,-4.68544 0.25762,-0.51527 -0.90168,-2.06099 0.90167,-3.34909 1.80335,-1.28812 3.09145,-0.25762 2.4474,-2.18978 -0.64405,-1.93215 -1.67453,-1.0305 -0.77286,-3.99313 0.90167,-2.96266 2.31859,-1.93216 1.2881,-3.73548 -1.03048,-1.80337 -1.01438,-1.06272 -0.98217,-2.06099 0.38642,-2.44739 0.0322,-1.03049 -0.69236,-4.25076 -1.41692,-5.15242 -0.90168,-8.11505 -1.67454,-11.59293 -0.77286,-3.4779 -1.41692,-6.44054 -0.90167,-7.59983 0.51524,-1.15929 0,-2.3186 2.70502,-4.12193 2.70502,-1.80336 3.34907,-2.06098 5.15242,-2.96265 1.80335,-0.90169 0.77286,-1.54573 3.73551,-3.86432 2.96264,-2.31858 1.41691,-1.1593 5.41004,-3.22026 3.99312,-2.06098 4.25076,-1.67453 5.41004,-3.86432 1.15932,-2.18979 1.80336,-1.0305 0.90168,-5.28123 -0.90168,-4.25075 -2.06096,-5.92527 -2.18978,-7.3422 -0.12885,-1.41691 0.12886,-1.93215 -0.64406,-2.96264 -0.77286,-1.0305 -0.77286,-2.57621 -0.25762,-2.83384 0.51526,-0.25761 0.25762,-0.64405 -0.51524,-1.41692 -0.77286,-0.77285 -1.80335,-0.38643 -1.54573,-1.93216 0.25763,-1.5457 0,-1.5457 1.15931,-2.44739 1.15928,-0.90168 1.15928,-1.54574 1.03047,-2.83382 -0.12882,-1.28812 -1.03047,-1.28812 0.12883,-2.31861 1.15928,-1.03048 1.80335,-2.18977 1.41692,-3.34907 -0.38644,-1.15929 0.25762,-1.67454 0.90167,-2.18977 0.64405,-0.51525 3.8643,1.41691 0.90167,-1.15931 -2.96264,-2.57619 -2.96264,-1.80335 -3.99313,-3.34907 -1.03048,-1.54572 -2.17973,-1.81695 -2.82378,-1.81695 -0.64406,0 -0.6541,0.0137 -0.13887,0.40004 0.51525,0.38642 -0.12879,-0.25764 1.1593,0.77288 1.28811,1.03046 1.41692,1.41691 2.31859,2.31857 0.90168,0.90167 1.54573,0.64407 0.90168,1.93216 -0.64406,1.28809 -1.1593,1.15928 -0.90168,1.80335 0.25762,0.64404 0.77285,-0.77286 0.38644,1.15928 -0.38644,1.93217 0.51524,1.54575 -0.38644,2.3186 -0.90167,0.77288 -1.15929,1.03049 -2.18978,1.80333 -1.03048,0.77287 -1.03048,2.31862 -1.54572,3.09148 -0.51525,0.77286 -1.67454,0.51523 -0.90168,1.93213 0.77287,1.41692 1.03049,1.15932 0.51524,2.70504 -0.51524,1.54574 -1.03048,1.54574 -0.12882,2.4474 0.90167,0.90168 1.80335,1.80335 1.80335,3.09146 0,1.28811 0.12882,2.31859 -0.38644,5.92528 -0.51524,3.60669 -0.51524,2.4474 -0.64405,5.02361 -0.12879,2.57622 3.47789,1.80337 -1.15929,4.50837 -4.63718,2.70503 -4.12194,3.22025 -7.72863,4.766 -3.6067,1.54571 -6.18291,1.54571 -9.53199,4.37955 -3.34907,2.83384 -11.979378,7.59981 -11.592941,13.3963 0.386429,5.79646 0,5.28123 0.386429,7.34221 0.386433,2.06095 1.803348,5.28124 1.545726,8.88791 -0.257624,3.60671 -0.901674,6.18293 -1.288104,7.3422 -0.386435,1.1593 -2.060968,4.25076 -2.962645,5.92529 -0.901675,1.67454 -4.508366,8.2439 -4.508366,8.2439 l -0.901675,1.20755 z"
       id="path1689"
       inkscape:connector-curvature="0"
       sodipodi:nodetypes="cccsccccsscccscscccccccscsccscccsccccccccscccscsssscccc" />
    <path
       style="display:inline;opacity:0.06100003;fill:#000000;fill-opacity:1;stroke:none;stroke-width:1.18807614px;stroke-linecap:butt;stroke-linejoin:miter;stroke-opacity:1"
       d="m 74.496357,184.61345 c 0.410446,-0.41913 -15.892344,-9.57274 -17.081034,-5.7238 -0.402811,2.51698 17.385859,7.91033 17.081034,5.7238 z"
       id="path2094"
       inkscape:connector-curvature="0"
       sodipodi:nodetypes="ccc" />
    <path
       style="display:inline;fill:#2b2b2b;fill-opacity:1;stroke:none;stroke-width:0.50691128px;stroke-linecap:butt;stroke-linejoin:miter;stroke-opacity:1"
       d="m 62.062688,171.83264 c 0,0 0.07775,0.94211 -0.318202,2.60362 -0.06974,0.8347 0.212858,3.1952 0.377293,4.85503 -2.168407,0.57667 -2.132985,-0.3089 -1.323757,-0.85483 0.04783,-0.51385 -0.140364,-1.40442 -0.25145,-1.88121 -0.111095,-0.47679 -0.371491,-2.1336 -0.371491,-2.1336 -0.836835,-0.10013 -1.115402,0.60396 -1.278198,1.09699 -0.142229,0.73186 0.273442,2.45225 0.318256,2.98374 -1.953203,1.37561 -1.800966,0.22786 -1.264177,-0.48847 0.07326,-0.72275 -0.542384,-1.96812 -0.470636,-2.73883 0.06419,-0.55417 1.343802,-2.20925 1.239549,-3.33713 z"
       id="path1986"
       inkscape:connector-curvature="0"
       sodipodi:nodetypes="cccccccccccc" />
    <path
       style="display:inline;fill:#ffca00;fill-opacity:1;stroke:none;stroke-width:0.50684595px;stroke-linecap:butt;stroke-linejoin:miter;stroke-opacity:1"
       d="m 57.916425,163.58346 c 0.638274,-0.0388 1.229055,0.0283 1.419728,0.64761 0.268892,0.96709 0.285986,1.58624 1.132779,2.03561 0,0 0.972886,0.73228 1.110556,1.26534 0.137684,0.53304 0.300633,0.83671 0.50318,1.59122 0.202549,0.75447 0.444348,1.65283 0.319468,2.29978 -0.124912,0.64698 -1.390774,0.99358 -1.390774,0.99358 -1.21801,0.53018 -3.06263,0.54605 -3.252566,-0.51268 -0.07415,-0.57601 0.113034,-0.81065 0.0091,-0.97673 -0.09822,-0.15693 -0.321495,-0.0719 -0.298654,-0.45491 0.03503,-0.58754 0.240149,-1.84473 0.370511,-2.55775 0.136504,-0.74659 0.02762,-1.11815 -0.01753,-1.35065 -0.448858,-0.63794 -0.697568,-0.98755 -0.815729,-1.44583 -0.137682,-0.53305 -0.08744,-0.64066 0.0473,-0.98155 0.199299,-0.30734 0.461282,-0.47629 0.862756,-0.55304 z"
       id="path1984"
       inkscape:connector-curvature="0"
       sodipodi:nodetypes="ccccccccsssccccc" />
  </g>
</svg>
